HIERARCHY
ROOT Hips
{
	OFFSET 0.000000 8.830580 0.000000
	CHANNELS 6 Xposition Yposition Zposition Zrotation Yrotation Xrotation 
	JOINT Spine
	{
		OFFSET 0.000000 0.010000 0.000000
		CHANNELS 3 Zrotation Yrotation Xrotation
		JOINT Spine1
		{
			OFFSET 0.000000 2.459130 0.000000
			CHANNELS 3 Zrotation Yrotation Xrotation
			JOINT Neck
			{
				OFFSET 0.000000 2.484630 0.000000
				CHANNELS 3 Zrotation Yrotation Xrotation
				JOINT Head_virtual
				{
					OFFSET 0.000000 0.000000 0.000000
					CHANNELS 3 Zrotation Yrotation Xrotation
					JOINT Head
					{
						OFFSET 0.000000 0.927525 0.000000
						CHANNELS 3 Zrotation Yrotation Xrotation
						End Site
						{
							OFFSET 0.000000 0.000000 0.000000
						}
					}
				}
				JOINT LeftUpArm_virtual
				{
					OFFSET 0.000000 0.000000 0.000000
					CHANNELS 3 Zrotation Yrotation Xrotation
					JOINT LeftUpArm
					{
						OFFSET 1.248820 0.000000 0.000000
						CHANNELS 3 Zrotation Yrotation Xrotation
						JOINT LeftForeArm
						{
							OFFSET 2.597580 0.000000 0.000000
							CHANNELS 3 Zrotation Yrotation Xrotation
							JOINT LeftHand
							{
								OFFSET 2.455420 0.000000 0.000000
								CHANNELS 3 Zrotation Yrotation Xrotation
								End Site
								{
									OFFSET 0.000000 0.000000 0.000000
								}
							}
						}
					}
				}
				JOINT RightUpArm_virtual
				{
					OFFSET -0.000000 -0.000000 -0.000000
					CHANNELS 3 Zrotation Yrotation Xrotation
					JOINT RightUpArm
					{
						OFFSET -1.248820 -0.000000 -0.000000
						CHANNELS 3 Zrotation Yrotation Xrotation
						JOINT RightForeArm
						{
							OFFSET -2.597580 -0.000000 -0.000000
							CHANNELS 3 Zrotation Yrotation Xrotation
							JOINT RightHand
							{
								OFFSET -2.455420 -0.000000 -0.000000
								CHANNELS 3 Zrotation Yrotation Xrotation
								End Site
								{
									OFFSET 0.000000 0.000000 0.000000
								}
							}
						}
					}
				}
			}
		}
	}
	JOINT LeftUpLeg
	{
		OFFSET 1.271939 0.000000 0.000000
		CHANNELS 3 Zrotation Yrotation Xrotation
		JOINT LeftLowLeg
		{
			OFFSET 0.000000 -4.342910 0.000000
			CHANNELS 3 Zrotation Yrotation Xrotation
			JOINT LeftFoot
			{
				OFFSET 0.000000 -4.487670 0.000000
				CHANNELS 3 Zrotation Yrotation Xrotation
				JOINT LeftToeBase
				{
					OFFSET 0.000000 0.000000 1.515070
					CHANNELS 3 Zrotation Yrotation Xrotation
					End Site
					{
						OFFSET 0.000000 0.000000 0.000000
					}
				}
			}
		}
	}
	JOINT RightUpLeg
	{
		OFFSET -1.271939 0.000000 0.000000
		CHANNELS 3 Zrotation Yrotation Xrotation
		JOINT RightLowLeg
		{
			OFFSET 0.000000 -4.342910 0.000000
			CHANNELS 3 Zrotation Yrotation Xrotation
			JOINT RightFoot
			{
				OFFSET 0.000000 -4.487670 0.000000
				CHANNELS 3 Zrotation Yrotation Xrotation
				JOINT RightToeBase
				{
					OFFSET 0.000000 0.000000 1.515070
					CHANNELS 3 Zrotation Yrotation Xrotation
					End Site
					{
						OFFSET 0.000000 0.000000 0.000000
					}
				}
			}
		}
	}
}
MOTION
Frames: 5
Frame Time: 0.041667
-20.526302 6.003597 39.658447 177.318643 7.024234 158.461741 2.256900 3.783458 5.163664 -7.485854 -4.171906 31.523875 0.000000 0.000000 0.000000 23.192140 -9.641847 -17.973311 7.819382 7.353820 -94.240265 -25.706699 -5.687700 11.381989 -40.166199 -45.046700 30.739599 0.000000 -62.320999 0.000000 34.652500 -8.354930 65.678101 24.715799 7.132090 6.351013 50.100800 43.320900 7.644989 180.000000 33.865005 180.000000 -1.065350 -2.833290 -50.494301 -30.037525 -6.135624 -66.407983 0.000000 0.000000 89.588898 -21.723023 6.261331 25.879292 0.000000 0.000000 -26.890600 7.285181 11.785910 -49.291412 0.000000 0.000000 72.818802 73.977157 8.926340 15.018587 0.000000 0.000000 21.711899 
-20.533071 6.002113 39.660089 177.446894 6.987512 158.434742 2.249040 3.736788 4.975154 -7.440569 -4.155124 31.675879 0.000000 0.000000 0.000000 23.841608 -9.676723 -18.136819 7.699583 7.525112 -94.489975 -25.724100 -5.764890 11.423004 -40.008999 -45.125198 30.586399 0.000000 -62.139500 0.000000 34.687401 -8.267480 65.658401 24.648300 7.047630 6.221985 50.428799 43.534801 7.579010 180.000000 33.932007 -180.000000 -0.719466 -2.373010 -51.187801 -30.060433 -6.095850 -66.400090 0.000000 0.000000 89.598099 -21.657566 6.215349 26.060990 0.000000 0.000000 -27.014400 7.319349 11.778499 -49.299592 0.000000 0.000000 72.835503 74.063886 8.827761 15.030247 0.000000 0.000000 21.720699 
-20.539722 6.001289 39.661141 177.569681 6.932160 158.399152 2.227130 3.664678 4.784947 -7.397124 -4.161489 31.837250 0.000000 0.000000 0.000000 24.005573 -9.601725 -18.259077 7.935973 7.627357 -94.603356 -25.744699 -5.862360 11.565002 -39.728100 -45.172901 30.192499 0.000000 -62.070301 0.000000 34.563202 -8.212220 65.540901 24.504200 6.974670 6.160004 50.878502 43.765900 7.347992 180.000000 34.345993 180.000000 0.312512 -0.220732 -52.166698 -30.177468 -6.006820 -66.349242 0.000000 0.000000 89.595497 -22.100051 6.289835 25.971587 0.000000 0.000000 -26.419300 7.336070 11.759195 -49.294917 0.000000 0.000000 72.866096 74.003154 8.765856 15.074172 0.000000 0.000000 21.509998 
-20.545015 6.001145 39.661948 177.707955 6.930475 158.330587 2.213882 3.615777 4.611800 -7.321348 -4.117377 32.078339 0.000000 0.000000 0.000000 24.561112 -9.659206 -18.407366 7.730510 7.764852 -94.807937 -25.738701 -5.961770 11.674011 -39.485500 -45.255199 29.858200 0.000000 -62.020401 0.000000 34.599701 -8.156310 65.436798 24.456900 6.953130 5.942993 51.127701 43.914200 7.520996 180.000000 34.285004 180.000000 0.304618 -0.505924 -52.360401 -30.276148 -5.832883 -66.277975 0.000000 0.000000 89.599899 -21.972364 6.219179 25.984334 0.000000 0.000000 -26.824100 7.428419 11.706648 -49.184033 0.000000 0.000000 72.813103 74.104893 8.782319 15.094131 0.000000 0.000000 21.525799 
-20.550400 6.000626 39.664748 177.849277 6.900240 158.265452 2.219803 3.543450 4.479531 -7.308803 -4.127160 32.282216 0.000000 0.000000 0.000000 24.780401 -9.614219 -18.453048 7.852724 7.854073 -94.953932 -25.739799 -6.045650 11.794006 -39.140099 -45.330101 29.474100 0.000000 -61.936401 0.000000 34.811901 -8.278330 65.277199 24.385401 6.994680 5.757996 51.411701 44.047401 7.704010 -180.000000 34.300995 -180.000000 0.350537 -0.492393 -52.498299 -30.496162 -5.637576 -66.215160 0.000000 0.000000 89.596497 -22.322265 6.438920 25.723296 0.000000 0.000000 -25.899900 7.528077 11.569057 -49.054637 0.000000 0.000000 72.719002 74.257952 8.846325 15.112548 0.000000 0.000000 21.676498 
